# xmcd CD database file
#
# Track frame offsets:
#	150
#	18407
#	46938
#	68725
#	90937
#	117283
#	135879
#	162183
#	178126
#	199314
#	221839
#	247193
#
# Disc length: 3750 seconds
#
# Revision: 0
# Processed by: cddbd v1.5.2PL0 Copyright (c) Steve Scherf et al.
# Submitted via: CDex 1.51
#
DISCID=a40ea40c
DTITLE=Nicola Conte - Rituals
DYEAR=2008
DGENRE=Jazz
TTITLE0=Karma Flower
TTITLE1=The Nubian Queens
TTITLE2=Like Leaves In The Wind
TTITLE3=Love In
TTITLE4=Awakening
TTITLE5=Paper Clouds
TTITLE6=I See All Shades Of You
TTITLE7=Song For The Seasons
TTITLE8=Red Sun
TTITLE9=Black Is The Graceful Veil
TTITLE10=Caravan
TTITLE11=Rituals
EXTD=YEAR: 2008
EXTT0=
EXTT1=
EXTT2=
EXTT3=
EXTT4=
EXTT5=
EXTT6=
EXTT7=
EXTT8=
EXTT9=
EXTT10=
EXTT11=
PLAYORDER=
